<svg fill="none" height="32" viewBox="0 0 32 32" width="32" xmlns="http://www.w3.org/2000/svg" xmlns:xlink="http://www.w3.org/1999/xlink"><linearGradient id="a" gradientUnits="userSpaceOnUse" x1="16" x2="16" y1="0" y2="10"><stop offset="0" stop-color="#ff665c"/><stop offset="1" stop-color="#ea4434"/></linearGradient><clipPath id="b"><path d="m0 0h32v32h-32z"/></clipPath><mask id="c" height="32" maskUnits="userSpaceOnUse" width="32" x="0" y="0"><path d="m23 0h-14c-5.52285 0-9 3.47715-9 9v14c0 5.5228 3.47715 9 9 9h14c5.5228 0 9-3.4772 9-9v-14c0-5.52285-3.4772-9-9-9z" fill="#d9d9d9"/></mask><g clip-path="url(#b)"><g mask="url(#c)"><path d="m6.049 0v32m9.451-32v32m9.451-32v32m7.049-25.951h-32m32 9.451h-32m32 9.451h-32" stroke="#919191"/><path d="m0 0h32v32h-32z" fill="#f8f7f6"/><path d="m0 0h32v10h-32z" fill="url(#a)"/><path d="m10.4359 28h2.1875v-14.0918h-2.1875l-3.7109 2.6367v2.1485l3.5449-2.5293h.166zm6.5774 0h2.2949l6.1328-12.1973v-1.8945h-9.5996v1.8457h7.3828v.1563z" fill="#000"/><path d="m10.5644 8.13672c1.1054 0 1.7578-.65234 1.7578-1.76172v-4.01172h-.875v4.00391c0 .64062-.3125.98828-.8906.98828-.5235 0-.79301-.33594-.82816-.76563l-.00391-.03515h-.86328l.00391.04687c.04687.89844.65625 1.53516 1.69924 1.53516zm5.3653 0c1.418 0 2.2812-.83984 2.2812-2.07813v-3.69531h-.875v3.62891c0 .8164-.5078 1.37109-1.4062 1.37109-.8985 0-1.4102-.55469-1.4102-1.37109v-3.62891h-.875v3.69531c0 1.23829.8711 2.07813 2.2852 2.07813zm3.6114-.13672h3.5156v-.75391h-2.6406v-4.88281h-.875z" fill="#fff"/></g></g></svg>